HIERARCHY
ROOT Hips
{
    OFFSET 0.000000 0.000000 0.000000
    CHANNELS 6 Xposition Yposition Zposition Zrotation Xrotation Yrotation
    JOINT Spine
    {
        OFFSET -0.000000 7.236184 0.000000
        CHANNELS 3 Zrotation Xrotation Yrotation
        JOINT Spine1
        {
            OFFSET -0.000000 20.420147 0.000000
            CHANNELS 3 Zrotation Xrotation Yrotation
            JOINT Neck
            {
                OFFSET -0.000000 20.336288 1.848754
                CHANNELS 3 Zrotation Xrotation Yrotation
                JOINT Head
                {
                    OFFSET -0.000000 12.354461 -1.764923
                    CHANNELS 3 Zrotation Xrotation Yrotation
                    End Site
                    {
                        OFFSET -0.000000 22.061537 0.000000
                    }
                }
            }
            JOINT LeftShoulder
            {
                OFFSET 3.573296 18.396038 -0.314103
                CHANNELS 3 Zrotation Xrotation Yrotation
                JOINT LeftArm
                {
                    OFFSET 10.880760 0.000000 0.000000
                    CHANNELS 3 Zrotation Xrotation Yrotation
                    JOINT LeftForeArm
                    {
                        OFFSET 27.185530 0.000000 0.000000
                        CHANNELS 3 Zrotation Xrotation Yrotation
                        JOINT LeftHand
                        {
                            OFFSET 27.825975 0.000000 0.000000
                            CHANNELS 3 Zrotation Xrotation Yrotation
                            End Site
                            {
                                OFFSET 13.236923 0.000000 0.000000
                            }
                        }
                    }
                }
            }
            JOINT RightShoulder
            {
                OFFSET -3.474926 18.396038 -0.314103
                CHANNELS 3 Zrotation Xrotation Yrotation
                JOINT RightArm
                {
                    OFFSET -10.880760 0.000000 0.000000
                    CHANNELS 3 Zrotation Xrotation Yrotation
                    JOINT RightForeArm
                    {
                        OFFSET -27.185530 0.000000 0.000000
                        CHANNELS 3 Zrotation Xrotation Yrotation
                        JOINT RightHand
                        {
                            OFFSET -27.825975 0.000000 0.000000
                            CHANNELS 3 Zrotation Xrotation Yrotation
                            End Site
                            {
                                OFFSET -13.236923 0.000000 0.000000
                            }
                        }
                    }
                }
            }
        }
    }
    JOINT LeftUpLeg
    {
        OFFSET 8.824615 0.000000 0.000000
        CHANNELS 3 Zrotation Xrotation Yrotation
        JOINT LeftLeg
        {
            OFFSET -0.000000 -35.111282 0.000000
            CHANNELS 3 Zrotation Xrotation Yrotation
            JOINT LeftFoot
            {
                OFFSET -0.000000 -42.324711 0.000000
                CHANNELS 3 Zrotation Xrotation Yrotation
                JOINT LeftToeBase
                {
                    OFFSET -0.000000 -5.735999 13.236923
                    CHANNELS 3 Zrotation Xrotation Yrotation
                    End Site
                    {
                        OFFSET -0.000000 0.000000 3.529846
                    }
                }
            }
        }
    }
    JOINT RightUpLeg
    {
        OFFSET -8.824615 0.000000 0.000000
        CHANNELS 3 Zrotation Xrotation Yrotation
        JOINT RightLeg
        {
            OFFSET -0.000000 -35.111282 0.000000
            CHANNELS 3 Zrotation Xrotation Yrotation
            JOINT RightFoot
            {
                OFFSET -0.000000 -42.324711 0.000000
                CHANNELS 3 Zrotation Xrotation Yrotation
                JOINT RightToeBase
                {
                    OFFSET -0.000000 -5.735999 13.236923
                    CHANNELS 3 Zrotation Xrotation Yrotation
                    End Site
                    {
                        OFFSET -0.000000 0.000000 3.529846
                    }
                }
            }
        }
    }
}
MOTION
Frames:    4
Frame Time:    0.008333
-5.701110    82.678108    101.041290    1.286066    -19.272909    -173.145508    -3.069086    -10.696773    0.208694    0.556466    6.184172    0.466146    2.894988    3.883427    -1.020316    2.066308    -13.044961    -0.868206    -0.920113    17.086178    -0.497163    -53.425194    39.488483    -29.372940    6.180526    -3.430944    -15.439466    34.612720    -2.089890    1.617212    6.350904    18.204412    -4.370710    46.179169    40.690483    28.420864    -2.216697    -9.401885    17.563477    -22.881193    -9.294844    1.156046    2.042417    -19.350006    -3.621697    -1.385952    9.629418    -5.479021    -0.427481    -7.342903    -5.839572    -0.418013    0.422289    0.463002    -2.964216    -13.388147    1.080163    3.253125    2.063963    2.513258    -0.950741    -5.098539    -12.317507    0.272705    0.194397    -0.294874
-5.740883    82.638870    100.827576    1.164434    -18.834955    -173.372299    -3.039310    -10.935355    0.191403    0.544775    6.105626    0.453465    2.831303    3.884206    -0.957085    2.173264    -12.958614    -0.769652    -0.852092    17.093088    -0.501905    -53.351009    39.544064    -29.545456    6.302194    -3.466672    -15.609850    34.716915    -2.106262    1.590565    6.299645    18.223169    -4.390755    46.278442    40.750084    28.453350    -2.079483    -9.409908    17.270712    -22.653696    -9.302832    1.034861    2.011592    -18.746784    -3.500722    -1.371507    9.703169    -5.527263    -0.364805    -7.544911    -5.732944    -0.422636    0.367639    0.468169    -2.998240    -12.816700    1.102773    3.270236    2.086146    2.663575    -0.964122    -5.233172    -12.296444    0.263335    0.191466    -0.284743
-5.778231    82.601318    100.624275    1.047482    -18.419746    -173.597961    -3.010340    -11.168193    0.175258    0.533803    6.035240    0.441735    2.779733    3.887969    -0.893909    2.262598    -12.860669    -0.677216    -0.787441    17.105341    -0.506736    -53.272179    39.600632    -29.709288    6.412300    -3.484146    -15.766751    34.776062    -2.106600    1.565626    6.253147    18.240818    -4.410017    46.361118    40.816578    28.502056    -1.959336    -9.415011    17.017467    -22.429546    -9.305202    0.917135    1.979791    -18.169640    -3.385197    -1.357552    9.767218    -5.557184    -0.306258    -7.732425    -5.636590    -0.427896    0.309367    0.474045    -3.034559    -12.274941    1.135267    3.287381    2.104553    2.803075    -0.974766    -5.359246    -12.272985    0.254684    0.188681    -0.275389
-5.813266    82.565384    100.430656    0.934763    -18.025288    -173.822723    -2.982521    -11.395325    0.160300    0.524016    5.972512    0.430850    2.738495    3.892290    -0.830993    2.336451    -12.752195    -0.590532    -0.726568    17.122387    -0.511251    -53.189964    39.657742    -29.864117    6.509699    -3.484397    -15.910626    34.785797    -2.091968    1.542937    6.210909    18.257263    -4.428271    46.428463    40.888733    28.565748    -1.853574    -9.415898    16.798130    -22.206993    -9.301415    0.803319    1.947037    -17.616444    -3.274905    -1.344049    9.822396    -5.568485    -0.252601    -7.906544    -5.551541    -0.433951    0.248045    0.480805    -3.073034    -11.760335    1.177115    3.304690    2.119048    2.932701    -0.983485    -5.476926    -12.247445    0.246557    0.186551    -0.266602
